<svg width="77" height="15" viewBox="0 0 77 15" fill="none" xmlns="http://www.w3.org/2000/svg">
<path d="M4.094 14H0.53V2.084C0.53 2.072 0.506 1.976 0.458 1.796C0.422 1.616 0.38 1.43 0.332 1.238C0.296 1.034 0.278 0.92 0.278 0.895999H4.652C7.304 0.895999 8.63 1.91 8.63 3.938C8.63 4.646 8.426 5.282 8.018 5.846C7.622 6.398 7.088 6.734 6.416 6.854C7.292 6.986 7.976 7.376 8.468 8.024C8.972 8.66 9.224 9.428 9.224 10.328C9.224 11.072 9.08 11.702 8.792 12.218C8.516 12.722 8.114 13.1 7.586 13.352C7.07 13.592 6.536 13.76 5.984 13.856C5.444 13.952 4.814 14 4.094 14ZM2.204 6.314H4.13C5.018 6.314 5.696 6.134 6.164 5.774C6.644 5.414 6.884 4.814 6.884 3.974C6.884 2.75 6.122 2.138 4.598 2.138H2.204V6.314ZM2.204 12.758H4.202C5.246 12.758 6.044 12.56 6.596 12.164C7.16 11.768 7.442 11.066 7.442 10.058C7.442 9.206 7.124 8.576 6.488 8.168C5.864 7.76 5.102 7.556 4.202 7.556H2.204V12.758ZM17.3646 12.146L18.0306 13.226C17.2026 13.898 16.1946 14.234 15.0066 14.234C13.7106 14.234 12.6906 13.802 11.9466 12.938C11.2146 12.062 10.8486 10.958 10.8486 9.626C10.8486 8.81 10.9806 8.048 11.2446 7.34C11.5206 6.632 11.9586 6.038 12.5586 5.558C13.1706 5.078 13.8966 4.838 14.7366 4.838C15.7806 4.838 16.6206 5.15 17.2566 5.774C17.8926 6.386 18.2106 7.208 18.2106 8.24C18.2106 9.008 17.9046 9.392 17.2926 9.392H12.4326V9.572C12.4326 10.436 12.6606 11.222 13.1166 11.93C13.5846 12.626 14.2266 12.974 15.0426 12.974C15.4386 12.974 15.8526 12.902 16.2846 12.758C16.7166 12.602 17.0766 12.398 17.3646 12.146ZM12.5406 8.276H16.3026C16.4346 8.276 16.5186 8.252 16.5546 8.204C16.5906 8.144 16.6086 8.042 16.6086 7.898C16.6086 7.358 16.4526 6.902 16.1406 6.53C15.8286 6.158 15.4086 5.972 14.8806 5.972C14.3046 5.972 13.7946 6.206 13.3506 6.674C12.9186 7.142 12.6486 7.676 12.5406 8.276ZM27.3032 14H25.8272V8.51C25.8272 8.234 25.8212 8.006 25.8092 7.826C25.7972 7.646 25.7612 7.442 25.7012 7.214C25.6532 6.986 25.5752 6.806 25.4672 6.674C25.3712 6.53 25.2212 6.41 25.0172 6.314C24.8252 6.218 24.5912 6.17 24.3152 6.17C23.5232 6.17 22.7072 6.566 21.8672 7.358V14H20.3912V7.664C20.3912 6.512 20.1932 5.666 19.7972 5.126L21.4352 4.91C21.6152 5.366 21.7292 5.792 21.7772 6.188C22.6772 5.288 23.6072 4.838 24.5672 4.838C25.5152 4.838 26.2052 5.126 26.6372 5.702C27.0812 6.266 27.3032 7.04 27.3032 8.024V14ZM37.1829 14H35.4009L31.7469 9.14V14H30.2529V1.346C30.2529 1.334 30.2349 1.25 30.1989 1.094C30.1629 0.926 30.1209 0.758 30.0729 0.589999C30.0369 0.409999 30.0189 0.307999 30.0189 0.284H31.7469V8.744L35.0949 5.054H36.6969L33.2589 8.816L37.1829 14ZM40.4921 2.048C40.4921 2.36 40.3841 2.624 40.1681 2.84C39.9641 3.044 39.7061 3.146 39.3941 3.146C39.0941 3.146 38.8361 3.038 38.6201 2.822C38.4161 2.606 38.3141 2.348 38.3141 2.048C38.3141 1.748 38.4161 1.49 38.6201 1.274C38.8361 1.058 39.0941 0.95 39.3941 0.95C39.6941 0.95 39.9521 1.058 40.1681 1.274C40.3841 1.49 40.4921 1.748 40.4921 2.048ZM40.1681 14H38.6741V6.116C38.6741 6.104 38.6561 6.02 38.6201 5.864C38.5841 5.696 38.5481 5.528 38.5121 5.36C38.4761 5.18 38.4581 5.078 38.4581 5.054H40.1681V14Z" fill="#70E1FA"/>
<path d="M50.0317 14H48.5557V8.51C48.5557 8.234 48.5497 8.006 48.5377 7.826C48.5257 7.646 48.4897 7.442 48.4297 7.214C48.3817 6.986 48.3037 6.806 48.1957 6.674C48.0997 6.53 47.9497 6.41 47.7457 6.314C47.5537 6.218 47.3197 6.17 47.0437 6.17C46.2517 6.17 45.4357 6.566 44.5957 7.358V14H43.1197V7.664C43.1197 6.512 42.9217 5.666 42.5257 5.126L44.1637 4.91C44.3437 5.366 44.4577 5.792 44.5057 6.188C45.4057 5.288 46.3357 4.838 47.2957 4.838C48.2437 4.838 48.9337 5.126 49.3657 5.702C49.8097 6.266 50.0317 7.04 50.0317 8.024V14ZM60.1814 12.686L60.4874 13.622C60.4034 13.658 60.2654 13.718 60.0734 13.802C59.8934 13.874 59.7434 13.934 59.6234 13.982C59.5154 14.018 59.3774 14.054 59.2094 14.09C59.0414 14.138 58.8914 14.162 58.7594 14.162C58.4114 14.162 58.1234 14.048 57.8954 13.82C57.6794 13.592 57.5414 13.298 57.4814 12.938C56.6774 13.778 55.7774 14.198 54.7814 14.198C54.0614 14.198 53.4674 13.988 52.9994 13.568C52.5434 13.136 52.3154 12.56 52.3154 11.84C52.3154 9.812 54.0254 8.786 57.4454 8.762V7.808C57.4454 6.608 56.9474 6.008 55.9514 6.008C55.4834 6.008 55.0094 6.104 54.5294 6.296C54.0494 6.488 53.6654 6.746 53.3774 7.07L52.6394 6.008C53.6114 5.228 54.7574 4.838 56.0774 4.838C57.0134 4.838 57.7214 5.096 58.2014 5.612C58.6934 6.116 58.9394 6.842 58.9394 7.79V12.254C58.9394 12.494 58.9634 12.668 59.0114 12.776C59.0714 12.884 59.1794 12.938 59.3354 12.938C59.4794 12.938 59.7614 12.854 60.1814 12.686ZM57.4454 10.508V9.932C57.0014 9.932 56.6174 9.95 56.2934 9.986C55.9814 10.01 55.6094 10.076 55.1774 10.184C54.7574 10.292 54.4274 10.484 54.1874 10.76C53.9594 11.024 53.8454 11.366 53.8454 11.786C53.8454 12.17 53.9714 12.458 54.2234 12.65C54.4874 12.842 54.8354 12.938 55.2674 12.938C55.8794 12.938 56.3954 12.692 56.8154 12.2C57.2354 11.696 57.4454 11.132 57.4454 10.508ZM61.336 13.478L61.966 12.38C62.662 12.86 63.298 13.1 63.874 13.1C64.366 13.1 64.792 13.004 65.152 12.812C65.512 12.62 65.692 12.296 65.692 11.84C65.692 11.48 65.548 11.168 65.26 10.904C64.972 10.628 64.618 10.394 64.198 10.202C63.79 10.01 63.382 9.812 62.974 9.608C62.566 9.392 62.218 9.104 61.93 8.744C61.642 8.384 61.498 7.952 61.498 7.448C61.498 6.608 61.804 5.966 62.416 5.522C63.028 5.066 63.772 4.838 64.648 4.838C65.56 4.838 66.358 5.048 67.042 5.468L66.52 6.62C65.956 6.188 65.386 5.972 64.81 5.972C64.342 5.972 63.928 6.068 63.568 6.26C63.208 6.452 63.028 6.764 63.028 7.196C63.028 7.556 63.172 7.874 63.46 8.15C63.748 8.414 64.096 8.642 64.504 8.834C64.924 9.014 65.338 9.212 65.746 9.428C66.166 9.632 66.52 9.92 66.808 10.292C67.096 10.664 67.24 11.108 67.24 11.624C67.24 12.512 66.934 13.172 66.322 13.604C65.722 14.024 64.954 14.234 64.018 14.234C63.214 14.234 62.32 13.982 61.336 13.478ZM75.4603 12.146L76.1263 13.226C75.2983 13.898 74.2903 14.234 73.1023 14.234C71.8063 14.234 70.7863 13.802 70.0423 12.938C69.3103 12.062 68.9443 10.958 68.9443 9.626C68.9443 8.81 69.0763 8.048 69.3403 7.34C69.6163 6.632 70.0543 6.038 70.6543 5.558C71.2663 5.078 71.9923 4.838 72.8323 4.838C73.8763 4.838 74.7163 5.15 75.3523 5.774C75.9883 6.386 76.3063 7.208 76.3063 8.24C76.3063 9.008 76.0003 9.392 75.3883 9.392H70.5283V9.572C70.5283 10.436 70.7563 11.222 71.2123 11.93C71.6803 12.626 72.3223 12.974 73.1383 12.974C73.5343 12.974 73.9483 12.902 74.3803 12.758C74.8123 12.602 75.1723 12.398 75.4603 12.146ZM70.6363 8.276H74.3983C74.5303 8.276 74.6143 8.252 74.6503 8.204C74.6863 8.144 74.7043 8.042 74.7043 7.898C74.7043 7.358 74.5483 6.902 74.2363 6.53C73.9243 6.158 73.5043 5.972 72.9763 5.972C72.4003 5.972 71.8903 6.206 71.4463 6.674C71.0143 7.142 70.7443 7.676 70.6363 8.276Z" fill="#D7C56B"/>
</svg>
